# xmcd
#
# Track frame offsets:
#	150
#	19780
#	29782
#	44690
#	58565
#	75200
#	96042
#	108227
#	118637
#	132820
#	143690
#	149350
#	165595
#	180892
# Disc length: 2636 seconds
# Revision: 1
# Processed by: cddbd v1.5.2PL0 Copyright (c) Steve Scherf et al.
#
# Submitted via: libkcddb 0.3
#
DISCID=b10a4a0e
DTITLE=Diverse artiesten - Luister Glorie
DYEAR=1996
DGENRE=Contemporary Christian
TTITLE0=The Joy Singers - Abba Vader
TTITLE1=Elly and Rikkert - Jarenlang
TTITLE2=Esther Tims - Wat een dag
TTITLE3=Marcel MacArthur - Leer mij uw weg
TTITLE4=Dianna Marchal - Een nieuwe morgen
TTITLE5=Royal Liverpool Philharmonic Orchestra - Hallelujah
TTITLE6=The Chapel Singers - When I no more behold you
TTITLE7=Hervormd Kerkkoor - Zegen ons, Algoede
TTITLE8=Harry and Marijke Govers - Er is hoop
TTITLE9=Elly and Rikkert - Zegenliedje
TTITLE10=Kinderkoor De Kleppertjes - Lied van Pasen
TTITLE11=Sing In Team - Vader dank U dat ik mag leven
TTITLE12=Slim Whitman - How great art Thou
TTITLE13=Skeeter Davis - Oh, happy day
EXTD=
EXTT0=
EXTT1=
EXTT2=
EXTT3=
EXTT4=
EXTT5=
EXTT6=
EXTT7=
EXTT8=
EXTT9=
EXTT10=
EXTT11=
EXTT12=
EXTT13=
PLAYORDER=
